<!-- Generated by IcoMoon.io -->
<svg version="1.1" xmlns="http://www.w3.org/2000/svg" width="59" height="32" viewBox="0 0 59 32">
<path d="M0.671 0.671c0.212-0.213 0.465-0.382 0.742-0.497s0.575-0.175 0.876-0.175c0.301 0 0.598 0.059 0.876 0.175s0.53 0.284 0.742 0.497l25.81 25.815 25.81-25.815c0.213-0.213 0.465-0.381 0.742-0.496s0.576-0.174 0.876-0.174c0.3 0 0.598 0.059 0.876 0.174s0.53 0.284 0.742 0.496 0.381 0.465 0.496 0.742c0.115 0.278 0.174 0.575 0.174 0.876s-0.059 0.598-0.174 0.876c-0.115 0.278-0.283 0.53-0.496 0.742l-27.429 27.429c-0.212 0.213-0.465 0.382-0.742 0.497s-0.575 0.175-0.876 0.175c-0.301 0-0.598-0.059-0.876-0.175s-0.53-0.284-0.742-0.497l-27.429-27.429c-0.213-0.212-0.382-0.465-0.497-0.742s-0.175-0.575-0.175-0.876c0-0.301 0.059-0.598 0.175-0.876s0.284-0.53 0.497-0.742z"></path>
</svg>
