<!-- Generated by IcoMoon.io -->
<svg version="1.1" xmlns="http://www.w3.org/2000/svg" width="59" height="32" viewBox="0 0 59 32">
<path d="M28.099 0.671c0.212-0.213 0.465-0.382 0.742-0.497s0.575-0.175 0.876-0.175 0.598 0.059 0.876 0.175c0.278 0.115 0.53 0.284 0.742 0.497l27.428 27.429c0.429 0.429 0.671 1.011 0.671 1.618s-0.241 1.189-0.671 1.618c-0.429 0.429-1.011 0.67-1.618 0.67s-1.189-0.241-1.618-0.67l-25.81-25.815-25.81 25.815c-0.429 0.429-1.011 0.67-1.618 0.67s-1.189-0.241-1.618-0.67c-0.429-0.429-0.67-1.011-0.67-1.618s0.241-1.189 0.67-1.618l27.429-27.429z"></path>
</svg>
